<?xml version="1.0" encoding="utf-8"?>
<!-- Generator: Adobe Illustrator 26.3.1, SVG Export Plug-In . SVG Version: 6.00 Build 0)  -->
<svg version="1.1" id="Layer_1" xmlns="http://www.w3.org/2000/svg" xmlns:xlink="http://www.w3.org/1999/xlink" x="0px" y="0px"
	 viewBox="0 0 640 512" style="enable-background:new 0 0 640 512;" xml:space="preserve">
<style type="text/css">
	.st0{fill:#FFFFFF;}
</style>
<path class="st0" d="M172.5,131.1c55.6-55.6,148-55.6,203.6,0c50,50,57.4,129.7,16.3,187.2l-1.1,1.6c-10.3,14.3-30.3,17.7-44.6,7.4
	c-14.4-10.3-17.8-30.3-7.5-44.6l1.1-1.6c22.9-32.1,19.3-76-8.6-103.9c-31.4-31.4-82.5-31.4-114,0L105.5,289.5
	c-31.5,30.6-31.5,82.5,0,114c27.8,27.9,71.8,31.5,103.8,8.6l1.6-2c14.4-9.4,34.4-6.1,44.6,8.3c10.3,14.4,7,34.4-7.4,44.7l-1.6,1.1
	c-58.4,41.1-136.3,34.5-186.3-15.4c-56.5-56.5-56.5-148.1,0-204.5L172.5,131.1z M467.5,380c-56.5,56.5-148,56.5-204.5,0
	c-50-50-56.5-128.8-15.4-186.3l1.1-1.6c9.4-14.3,29.4-17.7,44.6-7.4c14.4,9.4,17.8,29.4,7.5,44.6l-1.1,1.6
	c-22.9,31.2-19.3,76,8.6,103.9c31.4,31.4,82.5,31.4,114,0l112.2-112.3c31.5-31.5,31.5-83.4,0-114c-27.8-27.9-71.8-31.5-103.8-8.6
	l-1.6,1.1c-14.4,10.3-34.4,6.1-44.6-7.4c-10.3-14.4-7-34.4,7.4-44.6l1.6-1.1C451,6.7,529.8,13.2,579.8,63.2
	c56.5,56.5,56.5,148.1,0,204.5L467.5,380z"/>
</svg>
